# xmcd
#
# Track frame offsets:
#	150
#	10612
#	23055
#	34462
#	43559
#	55611
#	67963
#	80600
#	93260
#	105483
#	116717
#	129271
#	139545
#	151672
#	163514
#	174494
#	186334
#	199054
#	211195
#	226982
#	243474
#	260476
#	276713
#	294646
#
# Disc length: 4165 seconds
#
# Revision: 1
# Processed by: cddbd v1.5.1PL2 Copyright (c) Steve Scherf et al.
# Submitted via: audiograbber 1.83.01
#
DISCID=47104318
DTITLE=Cicero Blake - Here Comes The Heartache
DYEAR=2004
DGENRE=Soul
TTITLE0=Should I go
TTITLE1=Could this be love
TTITLE2=See what tomorrow brings
TTITLE3=Don't do this to me
TTITLE4=Take it from me
TTITLE5=Soul of pain
TTITLE6=Sad feeling
TTITLE7=You're gonna be sorry
TTITLE8=Step by step
TTITLE9=If I had my way
TTITLE10=Loving you woman is everything
TTITLE11=Shing-a-ling
TTITLE12=Here comes the heartache
TTITLE13=Face the case
TTITLE14=Don't wait until tomorrow
TTITLE15=Bad but beautiful bag
TTITLE16=A woman needs to be loved
TTITLE17=You got me walking
TTITLE18=Your love is like a boomerang
TTITLE19=How can I go on without you
TTITLE20=Doin' what comes naturally
TTITLE21=Dip my dipper
TTITLE22=Be good to me
TTITLE23=Don't wanna blow my chance with you
EXTD=
EXTT0=
EXTT1=
EXTT2=
EXTT3=
EXTT4=
EXTT5=
EXTT6=
EXTT7=
EXTT8=
EXTT9=
EXTT10=
EXTT11=
EXTT12=
EXTT13=
EXTT14=
EXTT15=
EXTT16=
EXTT17=
EXTT18=
EXTT19=
EXTT20=
EXTT21=
EXTT22=
EXTT23=
PLAYORDER=
